<?xml version="1.0" encoding="UTF-8"?><svg id="Layer_1" xmlns="http://www.w3.org/2000/svg" viewBox="0 0 277.56 203.25"><path d="M137.48,203.25c-8.4-.66-15.44-3.3-20.53-9.71-2.01-2.54-4.55-2.38-7.2-2.38-31.49.01-62.98.03-94.47.05-10.99,0-15.21-4.1-15.23-14.99C.01,131.57,0,86.92,0,42.27c0-7.13,2.83-10.73,9.83-12.31,4.87-1.1,9.78-2.01,14.71-2.83,2.81-.47,3.99-1.87,3.93-4.72-.09-4.16,0-8.33.07-12.49.08-4.47,2.28-7.08,6.79-7.82,37.65-6.18,71.62.68,99.53,28.39,3.27,3.25,5.02,3.28,8.3,0C166.72,7,195.46-2.18,228.29.5c4.8.39,9.6,1,14.37,1.66,4.85.67,7.38,3.34,7.06,8.5-.2,3.32.28,6.7-.09,9.99-.54,4.77,1.64,6.47,6.05,6.99,4.28.5,8.54,1.44,12.71,2.56,6.34,1.7,8.85,4.9,9.06,11.48.18,5.49.04,11,.04,16.49,0,38.82,0,77.64-.02,116.46,0,12.55-3.97,16.55-16.37,16.55-31.16,0-62.31.03-93.47-.05-3.36,0-5.82.68-8.2,3.45-5.57,6.48-13.17,8.68-21.97,8.66M97.37,146.29c13.35,4.44,25.38,11.28,36.23,20.55,1.13-2.58.79-4.77.77-6.87-.27-21.98,1.04-43.94.27-65.93-.51-14.62.19-29.28.26-43.92.02-3.48-.18-6.87-2.85-9.77-11.05-12-24.02-21-39.57-26.14-16.46-5.44-33.29-5.99-50.35-3.92-3.67.45-4.49,2.38-4.48,5.75.09,40.14.07,80.28.1,120.42,0,1.45-.39,3.02,1.1,4.74,19.41-3.12,38.79-1.25,58.52,5.09M143.67,82.44v84.5c29.06-23.01,61.11-30.81,96.81-25.73.17-2.9.43-5.35.43-7.8.03-38.98-.02-77.96.12-116.95.02-4.39-1.86-5.79-5.79-6.3-7.96-1.03-15.95-1.47-23.93-.9-25.11,1.78-46.7,11.22-64.05,29.8-2.54,2.72-3.73,5.58-3.66,9.38.21,10.99.07,21.99.07,33.99M9.32,66.44c.02,35.81.04,71.61.07,107.42,0,7.59.3,7.91,7.88,7.91,37.14,0,74.28-.04,111.41-.1,1.56,0,3.34.61,4.83-1.03-1.69-3.54-4.68-5.98-7.6-8.33-24.81-20.03-53.3-26.09-84.43-21.98-4.52.6-3.87,3.86-3.62,6.79.3,3.46,2.81,2.47,4.91,2.14,13.11-2.08,26.2-2.02,39.19.82,3.14.69,6.64,1.84,5.62,6.12-.93,3.92-4.15,2.73-6.98,2.34-13.93-1.96-27.85-2.4-41.67.89-8.73,2.07-9.91,1.14-9.91-7.9-.01-39.64-.02-79.27-.03-118.91,0-6.78-.27-7-6.67-5.83-2.95.54-5.89,1.09-8.85,1.55-2.98.47-4.22,2.11-4.17,5.14.1,7.33.02,14.65.01,22.98M249.64,153.44c0,3,.02,6,0,9-.04,7.17-2.13,8.89-9.2,7.41-14.97-3.15-29.97-4.21-45.07-.87-2.3.51-4.51.23-5.51-2.17-1.11-2.64.48-4.54,2.6-5.78,1.4-.82,3.08-1.35,4.69-1.58,8.9-1.32,17.83-2.33,26.85-1.15,5.37.7,10.74,1.38,16.05,2.06,1.9-7.54,1.34-9.36-3.38-10-33.05-4.48-62.84,2.78-88.42,24.9-1.84,1.59-3.73,3.2-3.87,6.24,1.78.08,3.26.21,4.73.21,36.98.04,73.97.08,110.95.1,7.73,0,8.26-.57,8.26-8.22-.01-40.82.05-81.63-.07-122.45-.04-13.15,2.52-11.66-11.74-14.27-6.52-1.19-6.78-1.02-6.79,5.63-.04,36.65-.06,73.3-.09,110.95Z"/><path d="M164.8,69.14c-2.79-7.53-1.16-14.15,4.22-18.25,6.6-5.04,14.56-4.26,24.76,2.71,4.15-3.6,8.83-6.39,14.95-6.04,12.29.71,19.19,13.19,12.41,23.41-6.71,10.12-16.52,17.27-25.54,25.14-1.67,1.45-3.37,1.05-4.96-.29-9.43-7.93-19.16-15.55-25.83-26.69Z"/></svg>